Coordinates
version=1
nRows=13
nColumns=22
inDegrees=yes

Units are S.I. units (second, meters, Newtons, ...)
If the header above contains a line with 'inDegrees', this indicates whether rotational values are in degrees (yes) or radians (no).

endheader
time	pelvis_tilt	pelvis_list	pelvis_rotation	pelvis_tx	pelvis_ty	pelvis_tz	hip_flexion_r	hip_adduction_r	hip_rotation_r	knee_angle_r	ankle_angle_r	subtalar_angle_r	hip_flexion_l	hip_adduction_l	hip_rotation_l	knee_angle_l	ankle_angle_l	subtalar_angle_l	lumbar_extension	lumbar_bending	lumbar_rotation
      6.34000000	     -9.31834539	      1.10862603	    295.05399671	     -0.20289799	      0.95010482	      0.72682025	      3.22603059	      4.20688880	     -8.16335803	    -46.07049354	     -1.23260075	     19.37964263	     29.33653130	     -6.94656961	    -16.34577917	    -25.24651871	      4.45542097	    -12.64331491	      1.79257511	      2.64172404	     -3.73865431
      6.35000000	     -9.17866171	      1.04601176	    295.58643465	     -0.19800785	      0.95106152	      0.73307414	      4.41791197	      3.86494209	     -8.07845703	    -48.33777318	     -1.92944957	     18.68472163	     28.76591854	     -6.52447107	    -15.96300456	    -25.21081768	      4.86746233	    -12.77469253	      1.69271192	      2.47508659	     -3.84144457
      6.36000000	     -9.01905244	      0.96308324	    296.15103942	     -0.19307562	      0.95206082	      0.73917102	      5.57531862	      3.51130346	     -8.02268954	    -50.46816425	     -2.42461885	     17.88203453	     28.14642316	     -6.07666313	    -15.55500316	    -25.12838475	      5.27074077	    -12.87286684	      1.57073862	      2.31319594	     -3.96508374
      6.37000000	     -8.84975203	      0.87025478	    296.74835021	     -0.18809861	      0.95310357	      0.74511572	      6.69675695	      3.15496646	     -7.97959090	    -52.42391006	     -2.68315297	     17.05437296	     27.48331364	     -5.60290484	    -15.09769886	    -24.97982716	      5.65540000	    -12.94256458	      1.44353424	      2.16144626	     -4.11318080
      6.38000000	     -8.68042400	      0.73308702	    297.40296807	     -0.18304824	      0.95420458	      0.75089234	      7.74590486	      2.80121118	     -8.01625664	    -54.17820883	     -2.79097911	     16.09180911	     26.78739615	     -5.13701775	    -14.61728912	    -24.82766848	      6.02780712	    -13.00341463	      1.28153149	      2.04637112	     -4.30080433
      6.39000000	     -8.51885694	      0.58515934	    298.10189084	     -0.17793130	      0.95536027	      0.75650771	      8.74576615	      2.46491725	     -8.05860070	    -55.70631072	     -2.70264588	     15.17161898	     26.05212107	     -4.65732363	    -14.06313648	    -24.59689492	      6.35395939	    -13.04374406	      1.12556717	      1.96104011	     -4.52526212
      6.40000000	     -8.37043831	      0.40283464	    298.85766356	     -0.17274357	      0.95655422	      0.76195366	      9.67265029	      2.14725956	     -8.15289388	    -56.99997746	     -2.48589325	     14.19654205	     25.29065589	     -4.19382604	    -13.46453382	    -24.34459059	      6.67307352	    -13.08010995	      0.95245548	      1.92046119	     -4.78215163
      6.41000000	     -8.23797361	      0.19569851	    299.66542347	     -0.16750143	      0.95777824	      0.76722094	     10.53442592	      1.85303406	     -8.27808681	    -58.05281213	     -2.16004467	     13.21679330	     24.50853260	     -3.74769003	    -12.81848930	    -24.06109326	      6.96064464	    -13.10970621	      0.77353984	      1.92227826	     -5.05852980
      6.42000000	     -8.11901343	     -0.02892185	    300.52038925	     -0.16222198	      0.95899910	      0.77230503	     11.33409006	      1.58292554	     -8.41671408	    -58.86464302	     -1.73763980	     12.25658580	     23.71780634	     -3.32248341	    -12.14415421	    -23.75906771	      7.23507990	    -13.13651264	      0.59252240	      1.95916409	     -5.36023411
      6.43000000	     -8.01494868	     -0.25767054	    301.41913218	     -0.15691643	      0.96021332	      0.77721476	     12.08187207	      1.33707362	     -8.55858294	    -59.43063128	     -1.26360849	     11.33203785	     22.91605703	     -2.91188105	    -11.42949187	    -23.41097674	      7.46384472	    -13.15612013	      0.42525418	      2.02315202	     -5.67894674
      6.44000000	     -7.91999054	     -0.48634091	    302.35902622	     -0.15160559	      0.96138471	      0.78193807	     12.78181794	      1.10901862	     -8.69882628	    -59.76417995	     -0.73684120	     10.46184186	     22.11913655	     -2.51707510	    -10.68864306	    -23.04452153	      7.66944255	    -13.17174042	      0.26937249	      2.10417538	     -6.00132459
      6.45000000	     -7.83222409	     -0.70812752	    303.33574656	     -0.14630461	      0.96249707	      0.78648530	     13.43786841	      0.89801489	     -8.82889733	    -59.87024841	     -0.16568061	      9.65597766	     21.33048882	     -2.13596853	     -9.92481417	    -22.65934644	      7.85364357	    -13.18311458	      0.12998637	      2.19441040	     -6.32575100
      6.46000000	     -7.74891860	     -0.91467330	    304.34490109	     -0.14102712	      0.96353166	      0.79086604	     14.05724589	      0.69837868	     -8.94242795	    -59.76080807	      0.44525591	      8.91232338	     20.55566769	     -1.76479584	     -9.14132575	    -22.25742435	      8.01627787	    -13.19033559	      0.01312285	      2.28384603	     -6.64884883
